<svg xmlns="http://www.w3.org/2000/svg" data-name="Layer 1" viewBox="0 0 128 128" fill="#2671c4"><path d="M83.57,73.88c.12-8.22-8.35-14-19.28-15.14-6.42-.65-9.91-2.48-9.91-6.72,0-4.05,4.12-7.06,8.71-6.81,8.34.47,9.55,5.63,9.55,8.78,0,0,9.08.1,9.08,0,0-7.67-4.42-14.42-13.45-16.41V28.5h-9v8.76c-9.33,1.48-14.5,9-14.59,15.4-.13,8.47,6.95,13.18,18.7,14.88,7.3,1,10.55,3.79,10.48,7.49-.06,4-2.67,7.83-10.19,7.83-7.14,0-10.07-4.41-10.07-9.06H43.8c0,8.34,4.46,14.46,15.42,15.88v8.74h9V89.77C80.94,88.16,83.49,78.6,83.57,73.88Z"/><path d="M20.41 64A43.59 43.59 0 0150.12 22.68V13.09a52.77 52.77 0 000 101.82v-9.59A43.59 43.59 0 0120.41 64zM77.37 12.94V22.5a43.61 43.61 0 010 83v9.56a52.79 52.79 0 000-102.12z"/></svg>